:SAMPLES-PER-SECOND 30
:FULLY-SPECIFIED
:DEGREES
1
root  86.8161 39.3106 4.98115 -123.711 -87.9107 124.509
RightUpLeg  -2.27519 -9.13639 -6.56288
RightLeg  4.83924 4.27142 0.0920987
RightFoot  -3.41844 -0.239378 3.17642
RightToes  -1.74624e-010 0 -3.6325e-017
Spine  -2.18028 -0.309887 0.111978
Spine1  6.30698 -0.00277644 -1.12853
HEad  -6.62884 -4.24844 -1.56547
LeftShoulder1  -0.192167 4.01354 -31.5749
LeftArm  -4.14528 7.52411 -43.6452
LeftForeArm  30.9884 -13.6085 -6.32627
LeftHand  -0.0375248 5.99835 -1.01125
RightShoulder  -1.18 -6.59104 31.6864
RightArm  17.3718 2.7834 47.2572
RightForeArm  17.4531 9.7007 7.84917
RightHand  -0.097947 3.32494 -1.542
LeftUpLeg  -2.13508 6.21851 3.29832
LeftLeg  2.48026 -5.42741 0.327133
LeftFoot  -0.691255 0.0837216 -0.840118
LeftToes  2.27646e-009 -8.13696e-011 -1.44715e-011
2
root  86.8144 39.3146 4.97524 -123.488 -87.9269 124.3
RightUpLeg  -2.25122 -9.0359 -6.50494
RightLeg  4.76787 4.14385 0.0133134
RightFoot  -3.41144 -0.243274 3.23688
RightToes  -1.74624e-010 0 -3.6325e-017
Spine  -2.02215 -0.264515 0.0512889
Spine1  6.04513 0.0243056 -1.07261
HEad  -6.67537 -4.17781 -1.71476
LeftShoulder1  -0.196606 4.02509 -31.5918
LeftArm  -4.13711 7.51581 -43.6685
LeftForeArm  31.0866 -13.564 -6.34777
LeftHand  -0.0389534 6.07699 -1.2286
RightShoulder  -1.20494 -6.64979 31.7702
RightArm  17.467 2.76261 47.0787
RightForeArm  17.0834 9.6669 7.89184
RightHand  -0.120611 3.594 -1.81088
LeftUpLeg  -2.24241 6.2123 3.30598
LeftLeg  2.67953 -5.50125 0.356266
LeftFoot  -0.701571 0.0884923 -0.914265
LeftToes  2.27646e-009 -8.13696e-011 -1.44715e-011
3
root  86.7944 39.3155 4.97808 -125.224 -87.8509 125.964
RightUpLeg  -2.13761 -9.17942 -6.60085
RightLeg  4.7465 4.40071 0.115941
RightFoot  -3.43407 -0.237326 3.14458
RightToes  -1.74624e-010 0 -3.6325e-017
Spine  -1.93608 -0.261721 0.171428
Spine1  5.9627 0.0627162 -1.20628
HEad  -6.6216 -4.1154 -1.66682
LeftShoulder1  -0.181583 3.98491 -31.6189
LeftArm  -3.86114 7.71442 -43.4932
LeftForeArm  30.7727 -13.7363 -6.33944
LeftHand  -0.0454846 6.44476 -0.985341
RightShoulder  -1.19835 -6.63672 31.7191
RightArm  17.389 2.69102 47.1909
RightForeArm  17.3188 9.6955 7.85554
RightHand  -0.0890744 3.37441 -1.42559
LeftUpLeg  -1.93416 6.26125 3.30797
LeftLeg  2.3283 -5.38154 0.306913
LeftFoot  -0.655012 0.0695494 -0.619861
LeftToes  2.27646e-009 -8.13696e-011 -1.44715e-011
4
root  86.7987 39.308 4.97704 -122.506 -87.9176 123.249
RightUpLeg  -2.19842 -9.16241 -6.59305
RightLeg  4.88536 4.27901 0.093247
RightFoot  -3.48624 -0.240971 3.20114
RightToes  -1.74624e-010 0 -3.6325e-017
Spine  -1.86108 -0.309017 0.124287
Spine1  5.86448 0.00385393 -1.16531
HEad  -6.70408 -4.10529 -1.66839
LeftShoulder1  -0.181447 3.98473 -31.6062
LeftArm  -3.80614 7.67786 -43.5368
LeftForeArm  30.6782 -13.7225 -6.36032
LeftHand  -0.0496331 6.77517 -0.998466
RightShoulder  -1.19531 -6.62818 31.7256
RightArm  17.1603 2.78738 47.242
RightForeArm  17.4754 9.48212 7.86997
RightHand  -0.0971741 3.0919 -1.56173
LeftUpLeg  -2.00485 6.23211 3.29227
LeftLeg  2.39367 -5.43939 0.313859
LeftFoot  -0.699748 0.0811858 -0.800707
LeftToes  2.27646e-009 -8.13696e-011 -1.44715e-011
5
root  86.782 39.3099 4.97581 -124.39 -87.8688 125.077
RightUpLeg  -2.08564 -9.15519 -6.60501
RightLeg  4.8072 4.3559 0.0858024
RightFoot  -3.48266 -0.243298 3.23724
RightToes  -1.74624e-010 0 -3.6325e-017
Spine  -1.89001 -0.234939 0.119132
Spine1  5.93295 0.0747204 -1.13862
HEad  -6.87621 -4.21323 -1.67685
LeftShoulder1  -0.169522 3.95248 -31.6588
LeftArm  -3.98111 7.5756 -43.569
LeftForeArm  30.8155 -13.5801 -6.38501
LeftHand  -0.0478821 6.85604 -0.924682
RightShoulder  -1.1878 -6.61253 31.6759
RightArm  17.0657 2.7337 47.237
RightForeArm  17.7148 9.52097 7.81993
RightHand  -0.0778786 3.02734 -1.29631
LeftUpLeg  -1.89809 6.26611 3.31297
LeftLeg  2.39416 -5.39142 0.302618
LeftFoot  -0.740733 0.0861586 -0.877993
LeftToes  2.27646e-009 -8.13696e-011 -1.44715e-011
6
root  86.7712 39.313 4.97391 -122.606 -87.933 123.274
RightUpLeg  -1.99164 -9.15107 -6.59408
RightLeg  4.73496 4.26326 0.0774942
RightFoot  -3.48465 -0.242059 3.21801
RightToes  -1.74624e-010 0 -3.6325e-017
Spine  -1.98047 -0.237834 0.0473356
Spine1  6.05958 0.0484528 -1.01938
HEad  -6.92568 -4.24288 -1.73986
LeftShoulder1  -0.156072 3.91745 -31.6094
LeftArm  -4.10757 7.48868 -43.687
LeftForeArm  30.9902 -13.4494 -6.41804
LeftHand  -0.0463893 6.98057 -0.615677
RightShoulder  -1.17503 -6.57815 31.6845
RightArm  17.1232 2.7045 47.1371
RightForeArm  18.0462 9.68548 7.75744
RightHand  -0.0344737 2.69988 -0.709551
LeftUpLeg  -1.88913 6.21688 3.30382
LeftLeg  2.41228 -5.49042 0.366142
LeftFoot  -0.730781 0.0822274 -0.816896
LeftToes  2.27646e-009 -8.13696e-011 -1.44715e-011
